<svg width="44" height="44" viewBox="0 0 44 44" fill="none" xmlns="http://www.w3.org/2000/svg">
<g filter="url(#filter0_b_34_136)">
<circle cx="22" cy="22" r="20" fill="#D9D9D9" fill-opacity="0.1"/>
<circle cx="22" cy="22" r="21" stroke="#666060" stroke-width="2"/>
</g>
<path fill-rule="evenodd" clip-rule="evenodd" d="M22.6137 10.3311C22.4584 9.89853 21.851 9.88695 21.6793 10.3132L19.7341 15.1441C19.633 15.3951 19.3507 15.5201 19.0969 15.4263L13.44 13.3348C13.017 13.1784 12.6195 13.6178 12.8172 14.0231L14.9464 18.3867C15.0691 18.6383 14.9615 18.9416 14.7076 19.0595L9.28947 21.575C8.88201 21.7642 8.91135 22.353 9.3356 22.5007L14.6633 24.3559C14.9371 24.4512 15.0727 24.7588 14.9583 25.0253L12.7551 30.158C12.5782 30.5701 12.9914 30.9887 13.4058 30.8172L18.3522 28.7697C18.5915 28.6707 18.8667 28.7707 18.9866 29.0002L21.7072 34.2089C21.8979 34.574 22.4236 34.5649 22.6014 34.1933L25.0795 29.0158C25.193 28.7787 25.4706 28.67 25.7149 28.7669L30.9511 30.8436C31.3646 31.0077 31.7703 30.5904 31.5949 30.1816L29.3815 25.0253C29.2671 24.7588 29.4027 24.4512 29.6766 24.3559L35.0042 22.5007C35.4285 22.353 35.4578 21.7642 35.0504 21.575L29.6323 19.0595C29.3784 18.9416 29.2707 18.6383 29.3934 18.3867L31.5322 14.0035C31.7286 13.6009 31.3372 13.163 30.9152 13.3131L24.973 15.4276C24.7134 15.52 24.4279 15.3849 24.3348 15.1255L22.6137 10.3311ZM27.1699 22.0948C27.1699 24.8562 24.9313 27.0948 22.1699 27.0948C19.4085 27.0948 17.1699 24.8562 17.1699 22.0948C17.1699 19.3334 19.4085 17.0948 22.1699 17.0948C24.9313 17.0948 27.1699 19.3334 27.1699 22.0948ZM26.1699 22.0948C26.1699 24.3039 24.3791 26.0948 22.1699 26.0948C19.9608 26.0948 18.1699 24.3039 18.1699 22.0948C18.1699 19.8857 19.9608 18.0948 22.1699 18.0948C24.3791 18.0948 26.1699 19.8857 26.1699 22.0948Z" fill="#D4B8B8"/>
<defs>
<filter id="filter0_b_34_136" x="-50" y="-50" width="144" height="144" filterUnits="userSpaceOnUse" color-interpolation-filters="sRGB">
<feFlood flood-opacity="0" result="BackgroundImageFix"/>
<feGaussianBlur in="BackgroundImageFix" stdDeviation="25"/>
<feComposite in2="SourceAlpha" operator="in" result="effect1_backgroundBlur_34_136"/>
<feBlend mode="normal" in="SourceGraphic" in2="effect1_backgroundBlur_34_136" result="shape"/>
</filter>
</defs>
</svg>
